<?xml version="1.0" standalone="no"?>
<!DOCTYPE svg PUBLIC "-//W3C//DTD SVG 20010904//EN"
 "http://www.w3.org/TR/2001/REC-SVG-20010904/DTD/svg10.dtd">
<svg version="1.0" xmlns="http://www.w3.org/2000/svg"
 width="392.000000pt" height="381.000000pt" viewBox="0 0 392.000000 381.000000"
 preserveAspectRatio="xMidYMid meet">
<metadata>
Created by potrace 1.15, written by Peter Selinger 2001-2017
</metadata>
<g transform="translate(0.000000,381.000000) scale(0.100000,-0.100000)"
fill="#000000" stroke="none">
<path d="M992 3623 c-459 -789 -931 -1618 -925 -1623 7 -6 958 -555 2247
-1296 l398 -229 -1141 -3 -1141 -2 0 -50 0 -50 1220 0 c747 0 1220 4 1220 9 0
5 216 384 480 842 265 457 482 836 483 841 1 6 -209 133 -468 282 -744 431
-2288 1322 -2312 1335 -20 10 -25 6 -61 -56z m882 -648 c410 -236 745 -433
746 -437 0 -3 -171 -303 -380 -665 -277 -478 -386 -658 -398 -657 -20 1 -1496
850 -1500 863 -2 6 514 911 755 1324 3 4 11 7 18 5 7 -2 348 -196 759 -433z
m1450 -839 c125 -72 230 -136 233 -142 3 -8 -742 -1313 -761 -1331 -4 -5 -734
414 -754 432 -11 10 58 135 358 656 205 354 378 654 386 666 14 22 14 22 161
-64 82 -47 251 -144 377 -217z"/>
</g>
</svg>
